<svg xmlns="http://www.w3.org/2000/svg" width="370" height="370" class="segno"><title>trentpower.fr/maintenance.html</title><path transform="scale(10)" class="qrline" stroke="#1f1e1c" d="M4 4.5h7m1 0h6m3 0h1m1 0h2m1 0h7m-29 1h1m5 0h1m2 0h2m5 0h2m4 0h1m5 0h1m-29 1h1m1 0h3m1 0h1m3 0h4m2 0h1m1 0h1m3 0h1m1 0h3m1 0h1m-29 1h1m1 0h3m1 0h1m4 0h1m2 0h1m1 0h2m1 0h1m2 0h1m1 0h3m1 0h1m-29 1h1m1 0h3m1 0h1m1 0h2m1 0h4m3 0h2m2 0h1m1 0h3m1 0h1m-29 1h1m5 0h1m1 0h1m1 0h1m1 0h2m1 0h2m5 0h1m5 0h1m-29 1h7m1 0h1m1 0h1m1 0h1m1 0h1m1 0h1m1 0h1m1 0h1m1 0h7m-19 1h2m1 0h3m2 0h2m-19 1h7m1 0h2m1 0h1m3 0h2m5 0h2m3 0h1m-29 1h2m6 0h2m1 0h1m4 0h1m1 0h9m1 0h1m-29 1h3m3 0h1m1 0h1m1 0h3m1 0h1m1 0h2m3 0h1m1 0h2m1 0h1m-26 1h3m1 0h1m1 0h4m1 0h1m2 0h2m1 0h4m2 0h2m1 0h1m-28 1h1m1 0h5m1 0h1m1 0h2m1 0h2m2 0h1m1 0h2m2 0h1m1 0h2m-25 1h4m1 0h1m1 0h3m2 0h1m2 0h1m1 0h6m2 0h2m-26 1h1m1 0h2m1 0h1m6 0h2m3 0h1m1 0h1m1 0h1m1 0h1m-27 1h3m6 0h1m10 0h6m-26 1h1m1 0h1m1 0h5m2 0h3m1 0h1m1 0h1m8 0h3m-29 1h5m3 0h1m1 0h2m1 0h1m1 0h2m1 0h2m1 0h5m2 0h1m-29 1h1m2 0h1m2 0h2m1 0h1m1 0h2m1 0h1m2 0h2m1 0h1m1 0h1m-23 1h1m1 0h4m1 0h7m2 0h1m1 0h1m1 0h1m1 0h2m1 0h1m1 0h2m-29 1h1m1 0h2m2 0h1m3 0h2m1 0h1m3 0h2m1 0h5m1 0h1m1 0h1m-21 1h2m2 0h2m2 0h3m1 0h1m3 0h2m1 0h2m-29 1h7m1 0h1m1 0h2m3 0h2m2 0h2m1 0h1m1 0h2m-26 1h1m5 0h1m1 0h1m4 0h1m1 0h2m1 0h3m3 0h2m-26 1h1m1 0h3m1 0h1m1 0h1m1 0h2m2 0h1m3 0h1m1 0h5m1 0h2m-28 1h1m1 0h3m1 0h1m1 0h1m1 0h1m1 0h1m1 0h2m1 0h4m2 0h1m1 0h1m-26 1h1m1 0h3m1 0h1m1 0h4m2 0h2m1 0h1m1 0h1m2 0h4m1 0h1m-28 1h1m5 0h1m1 0h1m3 0h4m4 0h2m3 0h1m1 0h1m-28 1h7m6 0h1m1 0h1m1 0h1m1 0h1m2 0h2m2 0h1"/></svg>
